<mxfile host="app.diagrams.net" modified="2022-02-20T06:28:06.043Z" agent="5.0 (Windows NT 10.0; Win64; x64) AppleWebKit/537.36 (KHTML, like Gecko) Chrome/98.0.4758.102 Safari/537.36 Edg/98.0.1108.56" etag="wWRGwXClZquLKz4dOjFM" version="16.6.1" type="github">
  <diagram id="SFW6uyiaUGHVdkmB1JjF" name="Page-1">
    <mxGraphModel dx="1550" dy="835" grid="0" gridSize="10" guides="1" tooltips="1" connect="1" arrows="1" fold="1" page="1" pageScale="1" pageWidth="1100" pageHeight="850" background="none" math="0" shadow="0">
      <root>
        <mxCell id="0" />
        <mxCell id="1" parent="0" />
        <mxCell id="SCMp1zclDyWqBbioAgGx-3" value="RECEPTIONIST" style="whiteSpace=wrap;html=1;align=center;fillColor=default;" parent="1" vertex="1">
          <mxGeometry x="164" y="313" width="99" height="40" as="geometry" />
        </mxCell>
        <mxCell id="fXJlIY3xlbVOnj3vWZwA-16" style="edgeStyle=orthogonalEdgeStyle;rounded=0;orthogonalLoop=1;jettySize=auto;html=1;endArrow=none;endFill=0;" edge="1" parent="1" source="SCMp1zclDyWqBbioAgGx-6" target="SCMp1zclDyWqBbioAgGx-17">
          <mxGeometry relative="1" as="geometry" />
        </mxCell>
        <mxCell id="SCMp1zclDyWqBbioAgGx-6" value="Name" style="ellipse;whiteSpace=wrap;html=1;align=center;fillColor=default;gradientColor=none;" parent="1" vertex="1">
          <mxGeometry x="310.5" y="93" width="64" height="40" as="geometry" />
        </mxCell>
        <mxCell id="fXJlIY3xlbVOnj3vWZwA-33" style="edgeStyle=orthogonalEdgeStyle;rounded=0;jumpStyle=arc;orthogonalLoop=1;jettySize=auto;html=1;exitX=0.5;exitY=1;exitDx=0;exitDy=0;entryX=0.5;entryY=0;entryDx=0;entryDy=0;endArrow=none;endFill=0;" edge="1" parent="1" source="SCMp1zclDyWqBbioAgGx-12" target="fXJlIY3xlbVOnj3vWZwA-24">
          <mxGeometry relative="1" as="geometry" />
        </mxCell>
        <mxCell id="SCMp1zclDyWqBbioAgGx-12" value="DELIVERY DRIVER" style="whiteSpace=wrap;html=1;align=center;fillColor=default;" parent="1" vertex="1">
          <mxGeometry x="357" y="313" width="117" height="40" as="geometry" />
        </mxCell>
        <mxCell id="fXJlIY3xlbVOnj3vWZwA-28" style="edgeStyle=orthogonalEdgeStyle;rounded=0;jumpStyle=arc;orthogonalLoop=1;jettySize=auto;html=1;exitX=1;exitY=0.5;exitDx=0;exitDy=0;entryX=0;entryY=0.5;entryDx=0;entryDy=0;endArrow=none;endFill=0;" edge="1" parent="1" source="SCMp1zclDyWqBbioAgGx-13" target="fXJlIY3xlbVOnj3vWZwA-27">
          <mxGeometry relative="1" as="geometry" />
        </mxCell>
        <mxCell id="SCMp1zclDyWqBbioAgGx-13" value="CUSTOMER" style="whiteSpace=wrap;html=1;align=center;fillColor=default;" parent="1" vertex="1">
          <mxGeometry x="156" y="472.5" width="75" height="40" as="geometry" />
        </mxCell>
        <mxCell id="fXJlIY3xlbVOnj3vWZwA-37" style="edgeStyle=orthogonalEdgeStyle;rounded=0;jumpStyle=arc;orthogonalLoop=1;jettySize=auto;html=1;endArrow=none;endFill=0;" edge="1" parent="1" source="SCMp1zclDyWqBbioAgGx-16" target="fXJlIY3xlbVOnj3vWZwA-34">
          <mxGeometry relative="1" as="geometry" />
        </mxCell>
        <mxCell id="SCMp1zclDyWqBbioAgGx-16" value="MANAGER" style="whiteSpace=wrap;html=1;align=center;fillColor=default;" parent="1" vertex="1">
          <mxGeometry x="510" y="250" width="75" height="40" as="geometry" />
        </mxCell>
        <mxCell id="fXJlIY3xlbVOnj3vWZwA-13" style="edgeStyle=orthogonalEdgeStyle;rounded=0;orthogonalLoop=1;jettySize=auto;html=1;entryX=0.5;entryY=0;entryDx=0;entryDy=0;endArrow=none;endFill=0;" edge="1" parent="1" source="SCMp1zclDyWqBbioAgGx-17" target="fXJlIY3xlbVOnj3vWZwA-12">
          <mxGeometry relative="1" as="geometry" />
        </mxCell>
        <mxCell id="fXJlIY3xlbVOnj3vWZwA-38" style="edgeStyle=orthogonalEdgeStyle;rounded=0;jumpStyle=arc;orthogonalLoop=1;jettySize=auto;html=1;endArrow=none;endFill=0;startArrow=none;" edge="1" parent="1" target="SCMp1zclDyWqBbioAgGx-16">
          <mxGeometry relative="1" as="geometry">
            <mxPoint x="452" y="165" as="sourcePoint" />
          </mxGeometry>
        </mxCell>
        <mxCell id="SCMp1zclDyWqBbioAgGx-17" value="EMPLOYEE" style="whiteSpace=wrap;html=1;align=center;fillColor=default;" parent="1" vertex="1">
          <mxGeometry x="305" y="145" width="75" height="40" as="geometry" />
        </mxCell>
        <mxCell id="fXJlIY3xlbVOnj3vWZwA-17" style="edgeStyle=orthogonalEdgeStyle;rounded=0;orthogonalLoop=1;jettySize=auto;html=1;endArrow=none;endFill=0;entryX=0;entryY=0.5;entryDx=0;entryDy=0;" edge="1" parent="1" source="eeIK4nAqeX3JLeK-aHzr-2" target="SCMp1zclDyWqBbioAgGx-6">
          <mxGeometry relative="1" as="geometry">
            <mxPoint x="265" y="122.5999755859375" as="targetPoint" />
            <Array as="points">
              <mxPoint x="263" y="113" />
            </Array>
          </mxGeometry>
        </mxCell>
        <mxCell id="eeIK4nAqeX3JLeK-aHzr-2" value="Fname" style="ellipse;whiteSpace=wrap;html=1;align=center;fillColor=default;gradientColor=none;" parent="1" vertex="1">
          <mxGeometry x="231" y="49" width="64" height="40" as="geometry" />
        </mxCell>
        <mxCell id="fXJlIY3xlbVOnj3vWZwA-18" style="edgeStyle=orthogonalEdgeStyle;rounded=0;orthogonalLoop=1;jettySize=auto;html=1;endArrow=none;endFill=0;entryX=1;entryY=0.5;entryDx=0;entryDy=0;" edge="1" parent="1" source="eeIK4nAqeX3JLeK-aHzr-4" target="SCMp1zclDyWqBbioAgGx-6">
          <mxGeometry relative="1" as="geometry">
            <mxPoint x="404" y="127" as="targetPoint" />
            <Array as="points">
              <mxPoint x="412" y="117" />
              <mxPoint x="375" y="117" />
            </Array>
          </mxGeometry>
        </mxCell>
        <mxCell id="eeIK4nAqeX3JLeK-aHzr-4" value="Lname" style="ellipse;whiteSpace=wrap;html=1;align=center;fillColor=default;gradientColor=none;" parent="1" vertex="1">
          <mxGeometry x="380" y="49" width="64" height="40" as="geometry" />
        </mxCell>
        <mxCell id="eeIK4nAqeX3JLeK-aHzr-5" value="MENU ITEM" style="whiteSpace=wrap;html=1;align=center;fillColor=default;" parent="1" vertex="1">
          <mxGeometry x="687" y="410" width="75" height="40" as="geometry" />
        </mxCell>
        <mxCell id="fXJlIY3xlbVOnj3vWZwA-42" style="edgeStyle=orthogonalEdgeStyle;rounded=0;jumpStyle=arc;orthogonalLoop=1;jettySize=auto;html=1;exitX=1;exitY=0.5;exitDx=0;exitDy=0;entryX=0.5;entryY=1;entryDx=0;entryDy=0;endArrow=ERoneToMany;endFill=0;" edge="1" parent="1" source="eeIK4nAqeX3JLeK-aHzr-6" target="eeIK4nAqeX3JLeK-aHzr-5">
          <mxGeometry relative="1" as="geometry" />
        </mxCell>
        <mxCell id="eeIK4nAqeX3JLeK-aHzr-6" value="ORDER" style="whiteSpace=wrap;html=1;align=center;fillColor=default;" parent="1" vertex="1">
          <mxGeometry x="387" y="473" width="55" height="40" as="geometry" />
        </mxCell>
        <mxCell id="fXJlIY3xlbVOnj3vWZwA-7" style="edgeStyle=orthogonalEdgeStyle;rounded=0;orthogonalLoop=1;jettySize=auto;html=1;exitX=0.5;exitY=1;exitDx=0;exitDy=0;entryX=0;entryY=0.5;entryDx=0;entryDy=0;endArrow=none;endFill=0;" edge="1" parent="1" source="fXJlIY3xlbVOnj3vWZwA-6" target="eeIK4nAqeX3JLeK-aHzr-5">
          <mxGeometry relative="1" as="geometry" />
        </mxCell>
        <mxCell id="fXJlIY3xlbVOnj3vWZwA-6" value="Name" style="ellipse;whiteSpace=wrap;html=1;align=center;fillColor=default;gradientColor=none;" vertex="1" parent="1">
          <mxGeometry x="634" y="349" width="64" height="40" as="geometry" />
        </mxCell>
        <mxCell id="fXJlIY3xlbVOnj3vWZwA-9" style="edgeStyle=orthogonalEdgeStyle;rounded=0;orthogonalLoop=1;jettySize=auto;html=1;endArrow=none;endFill=0;" edge="1" parent="1" source="fXJlIY3xlbVOnj3vWZwA-8">
          <mxGeometry relative="1" as="geometry">
            <mxPoint x="742" y="409" as="targetPoint" />
          </mxGeometry>
        </mxCell>
        <mxCell id="fXJlIY3xlbVOnj3vWZwA-8" value="Quantity" style="ellipse;whiteSpace=wrap;html=1;align=center;fillColor=default;gradientColor=none;" vertex="1" parent="1">
          <mxGeometry x="710" y="349" width="64" height="40" as="geometry" />
        </mxCell>
        <mxCell id="fXJlIY3xlbVOnj3vWZwA-11" style="edgeStyle=orthogonalEdgeStyle;rounded=0;orthogonalLoop=1;jettySize=auto;html=1;endArrow=none;endFill=0;entryX=1;entryY=0.25;entryDx=0;entryDy=0;" edge="1" parent="1" source="fXJlIY3xlbVOnj3vWZwA-10" target="eeIK4nAqeX3JLeK-aHzr-5">
          <mxGeometry relative="1" as="geometry">
            <mxPoint x="818" y="432" as="targetPoint" />
            <Array as="points">
              <mxPoint x="825" y="420" />
            </Array>
          </mxGeometry>
        </mxCell>
        <mxCell id="fXJlIY3xlbVOnj3vWZwA-10" value="Price" style="ellipse;whiteSpace=wrap;html=1;align=center;fillColor=default;gradientColor=none;" vertex="1" parent="1">
          <mxGeometry x="786" y="349" width="64" height="40" as="geometry" />
        </mxCell>
        <mxCell id="fXJlIY3xlbVOnj3vWZwA-19" style="edgeStyle=orthogonalEdgeStyle;rounded=0;orthogonalLoop=1;jettySize=auto;html=1;endArrow=none;endFill=0;jumpStyle=arc;" edge="1" parent="1" source="fXJlIY3xlbVOnj3vWZwA-12" target="SCMp1zclDyWqBbioAgGx-3">
          <mxGeometry relative="1" as="geometry" />
        </mxCell>
        <mxCell id="fXJlIY3xlbVOnj3vWZwA-20" style="edgeStyle=orthogonalEdgeStyle;rounded=0;orthogonalLoop=1;jettySize=auto;html=1;endArrow=none;endFill=0;" edge="1" parent="1" source="fXJlIY3xlbVOnj3vWZwA-12" target="SCMp1zclDyWqBbioAgGx-12">
          <mxGeometry relative="1" as="geometry">
            <Array as="points">
              <mxPoint x="416" y="232" />
            </Array>
          </mxGeometry>
        </mxCell>
        <mxCell id="fXJlIY3xlbVOnj3vWZwA-12" value="d" style="ellipse;whiteSpace=wrap;html=1;" vertex="1" parent="1">
          <mxGeometry x="328" y="218" width="29" height="28" as="geometry" />
        </mxCell>
        <mxCell id="fXJlIY3xlbVOnj3vWZwA-15" style="edgeStyle=orthogonalEdgeStyle;rounded=0;orthogonalLoop=1;jettySize=auto;html=1;exitX=0.5;exitY=1;exitDx=0;exitDy=0;entryX=0;entryY=0.5;entryDx=0;entryDy=0;endArrow=none;endFill=0;" edge="1" parent="1" source="fXJlIY3xlbVOnj3vWZwA-14" target="SCMp1zclDyWqBbioAgGx-17">
          <mxGeometry relative="1" as="geometry">
            <Array as="points">
              <mxPoint x="267" y="137" />
              <mxPoint x="267" y="165" />
            </Array>
          </mxGeometry>
        </mxCell>
        <mxCell id="fXJlIY3xlbVOnj3vWZwA-14" value="Rating" style="ellipse;whiteSpace=wrap;html=1;align=center;fillColor=default;gradientColor=none;" vertex="1" parent="1">
          <mxGeometry x="164" y="118" width="64" height="40" as="geometry" />
        </mxCell>
        <mxCell id="fXJlIY3xlbVOnj3vWZwA-22" value="" style="shape=requiredInterface;html=1;verticalLabelPosition=bottom;sketch=0;rotation=-180;" vertex="1" parent="1">
          <mxGeometry x="283" y="221" width="10" height="22" as="geometry" />
        </mxCell>
        <mxCell id="fXJlIY3xlbVOnj3vWZwA-23" value="" style="shape=requiredInterface;html=1;verticalLabelPosition=bottom;sketch=0;rotation=0;" vertex="1" parent="1">
          <mxGeometry x="387" y="221" width="10" height="22" as="geometry" />
        </mxCell>
        <mxCell id="fXJlIY3xlbVOnj3vWZwA-26" style="edgeStyle=orthogonalEdgeStyle;rounded=0;jumpStyle=arc;orthogonalLoop=1;jettySize=auto;html=1;endArrow=none;endFill=0;" edge="1" parent="1" source="fXJlIY3xlbVOnj3vWZwA-24" target="eeIK4nAqeX3JLeK-aHzr-6">
          <mxGeometry relative="1" as="geometry" />
        </mxCell>
        <mxCell id="fXJlIY3xlbVOnj3vWZwA-24" value="Delivers" style="shape=rhombus;perimeter=rhombusPerimeter;whiteSpace=wrap;html=1;align=center;fillColor=default;gradientColor=none;" vertex="1" parent="1">
          <mxGeometry x="364.5" y="395" width="102" height="47" as="geometry" />
        </mxCell>
        <mxCell id="fXJlIY3xlbVOnj3vWZwA-29" style="edgeStyle=orthogonalEdgeStyle;rounded=0;jumpStyle=arc;orthogonalLoop=1;jettySize=auto;html=1;exitX=1;exitY=0.5;exitDx=0;exitDy=0;entryX=0;entryY=0.5;entryDx=0;entryDy=0;endArrow=none;endFill=0;" edge="1" parent="1" source="fXJlIY3xlbVOnj3vWZwA-27" target="eeIK4nAqeX3JLeK-aHzr-6">
          <mxGeometry relative="1" as="geometry" />
        </mxCell>
        <mxCell id="fXJlIY3xlbVOnj3vWZwA-27" value="Places" style="shape=rhombus;perimeter=rhombusPerimeter;whiteSpace=wrap;html=1;align=center;fillColor=default;gradientColor=none;" vertex="1" parent="1">
          <mxGeometry x="255" y="469" width="102" height="47" as="geometry" />
        </mxCell>
        <mxCell id="fXJlIY3xlbVOnj3vWZwA-31" style="edgeStyle=orthogonalEdgeStyle;rounded=0;jumpStyle=arc;orthogonalLoop=1;jettySize=auto;html=1;endArrow=none;endFill=0;" edge="1" parent="1" source="fXJlIY3xlbVOnj3vWZwA-30" target="SCMp1zclDyWqBbioAgGx-17">
          <mxGeometry relative="1" as="geometry" />
        </mxCell>
        <mxCell id="fXJlIY3xlbVOnj3vWZwA-30" value="Hours" style="ellipse;whiteSpace=wrap;html=1;align=center;fillColor=default;gradientColor=none;" vertex="1" parent="1">
          <mxGeometry x="164" y="169" width="64" height="40" as="geometry" />
        </mxCell>
        <mxCell id="fXJlIY3xlbVOnj3vWZwA-36" style="edgeStyle=orthogonalEdgeStyle;rounded=0;jumpStyle=arc;orthogonalLoop=1;jettySize=auto;html=1;exitX=0.5;exitY=1;exitDx=0;exitDy=0;entryX=0.5;entryY=0;entryDx=0;entryDy=0;endArrow=none;endFill=0;" edge="1" parent="1" source="fXJlIY3xlbVOnj3vWZwA-34" target="fXJlIY3xlbVOnj3vWZwA-35">
          <mxGeometry relative="1" as="geometry" />
        </mxCell>
        <mxCell id="fXJlIY3xlbVOnj3vWZwA-34" value="Manages" style="shape=rhombus;perimeter=rhombusPerimeter;whiteSpace=wrap;html=1;align=center;fillColor=default;gradientColor=none;" vertex="1" parent="1">
          <mxGeometry x="496.5" y="323" width="102" height="47" as="geometry" />
        </mxCell>
        <mxCell id="fXJlIY3xlbVOnj3vWZwA-35" value="Store" style="whiteSpace=wrap;html=1;align=center;fillColor=default;" vertex="1" parent="1">
          <mxGeometry x="510" y="410" width="75" height="40" as="geometry" />
        </mxCell>
        <mxCell id="fXJlIY3xlbVOnj3vWZwA-40" value="" style="edgeStyle=orthogonalEdgeStyle;rounded=0;jumpStyle=arc;orthogonalLoop=1;jettySize=auto;html=1;endArrow=none;endFill=0;" edge="1" parent="1" source="SCMp1zclDyWqBbioAgGx-17">
          <mxGeometry relative="1" as="geometry">
            <mxPoint x="380" y="165" as="sourcePoint" />
            <mxPoint x="457" y="165" as="targetPoint" />
          </mxGeometry>
        </mxCell>
        <mxCell id="fXJlIY3xlbVOnj3vWZwA-41" value="" style="shape=requiredInterface;html=1;verticalLabelPosition=bottom;sketch=0;rotation=0;" vertex="1" parent="1">
          <mxGeometry x="461" y="154" width="10" height="22" as="geometry" />
        </mxCell>
        <mxCell id="fXJlIY3xlbVOnj3vWZwA-48" style="edgeStyle=orthogonalEdgeStyle;rounded=0;jumpStyle=arc;orthogonalLoop=1;jettySize=auto;html=1;exitX=0.5;exitY=1;exitDx=0;exitDy=0;entryX=0.5;entryY=0;entryDx=0;entryDy=0;endArrow=none;endFill=0;" edge="1" parent="1" source="fXJlIY3xlbVOnj3vWZwA-43" target="SCMp1zclDyWqBbioAgGx-13">
          <mxGeometry relative="1" as="geometry" />
        </mxCell>
        <mxCell id="fXJlIY3xlbVOnj3vWZwA-43" value="Name" style="ellipse;whiteSpace=wrap;html=1;align=center;fillColor=default;gradientColor=none;" vertex="1" parent="1">
          <mxGeometry x="159.5" y="410" width="64" height="40" as="geometry" />
        </mxCell>
        <mxCell id="fXJlIY3xlbVOnj3vWZwA-44" style="edgeStyle=orthogonalEdgeStyle;rounded=0;orthogonalLoop=1;jettySize=auto;html=1;endArrow=none;endFill=0;entryX=0;entryY=0.5;entryDx=0;entryDy=0;" edge="1" parent="1" source="fXJlIY3xlbVOnj3vWZwA-45" target="fXJlIY3xlbVOnj3vWZwA-43">
          <mxGeometry relative="1" as="geometry">
            <mxPoint x="114" y="439.5999755859375" as="targetPoint" />
            <Array as="points">
              <mxPoint x="112" y="430" />
            </Array>
          </mxGeometry>
        </mxCell>
        <mxCell id="fXJlIY3xlbVOnj3vWZwA-45" value="Fname" style="ellipse;whiteSpace=wrap;html=1;align=center;fillColor=default;gradientColor=none;" vertex="1" parent="1">
          <mxGeometry x="80" y="366" width="64" height="40" as="geometry" />
        </mxCell>
        <mxCell id="fXJlIY3xlbVOnj3vWZwA-46" style="edgeStyle=orthogonalEdgeStyle;rounded=0;orthogonalLoop=1;jettySize=auto;html=1;endArrow=none;endFill=0;entryX=1;entryY=0.5;entryDx=0;entryDy=0;" edge="1" parent="1" source="fXJlIY3xlbVOnj3vWZwA-47" target="fXJlIY3xlbVOnj3vWZwA-43">
          <mxGeometry relative="1" as="geometry">
            <mxPoint x="253" y="444" as="targetPoint" />
            <Array as="points">
              <mxPoint x="261" y="434" />
              <mxPoint x="224" y="434" />
            </Array>
          </mxGeometry>
        </mxCell>
        <mxCell id="fXJlIY3xlbVOnj3vWZwA-47" value="Lname" style="ellipse;whiteSpace=wrap;html=1;align=center;fillColor=default;gradientColor=none;" vertex="1" parent="1">
          <mxGeometry x="229" y="366" width="64" height="40" as="geometry" />
        </mxCell>
        <mxCell id="fXJlIY3xlbVOnj3vWZwA-50" style="edgeStyle=orthogonalEdgeStyle;rounded=0;jumpStyle=arc;orthogonalLoop=1;jettySize=auto;html=1;entryX=0.5;entryY=1;entryDx=0;entryDy=0;endArrow=none;endFill=0;" edge="1" parent="1" source="fXJlIY3xlbVOnj3vWZwA-49" target="SCMp1zclDyWqBbioAgGx-13">
          <mxGeometry relative="1" as="geometry" />
        </mxCell>
        <mxCell id="fXJlIY3xlbVOnj3vWZwA-49" value="Address" style="ellipse;whiteSpace=wrap;html=1;align=center;fillColor=default;gradientColor=none;" vertex="1" parent="1">
          <mxGeometry x="161.5" y="538" width="64" height="40" as="geometry" />
        </mxCell>
        <mxCell id="fXJlIY3xlbVOnj3vWZwA-52" style="edgeStyle=orthogonalEdgeStyle;rounded=0;jumpStyle=arc;orthogonalLoop=1;jettySize=auto;html=1;entryX=0;entryY=0.5;entryDx=0;entryDy=0;endArrow=none;endFill=0;" edge="1" parent="1" source="fXJlIY3xlbVOnj3vWZwA-51" target="SCMp1zclDyWqBbioAgGx-13">
          <mxGeometry relative="1" as="geometry" />
        </mxCell>
        <mxCell id="fXJlIY3xlbVOnj3vWZwA-51" value="Order #" style="ellipse;whiteSpace=wrap;html=1;align=center;fillColor=default;gradientColor=none;" vertex="1" parent="1">
          <mxGeometry x="68" y="473" width="64" height="40" as="geometry" />
        </mxCell>
      </root>
    </mxGraphModel>
  </diagram>
</mxfile>
